<svg xmlns="http://www.w3.org/2000/svg" xmlns:xlink="http://www.w3.org/1999/xlink" version="1.1" x="0px" y="0px" viewBox="0 0 100 125" enable-background="new 0 0 100 100" xml:space="preserve"><g><path fill="#000000" d="M70.017,35.747h-26.32c-0.729-0.426-1.578-0.639-2.428-0.637c-2.25,0.007-4.496,1.515-4.486,4.514   l0.074,21.658c0.006,2.305,1.34,3.711,2.975,4.24l6.652,3.363l-6.08,7.752c0,0-0.002,0.002-0.002,0.004l-2.104,2.658   c-1.451,1.855-0.775,3.881,0.611,4.963l2.785,2.066l0.715-0.914c0.002-0.006,0-0.008,0.002-0.014L54.53,69.887   c0.463-0.59,1.35,0.102,0.889,0.693L45.126,83.752c0.164,0.186,0.34,0.359,0.533,0.51l2.785,2.066l4.006-5.139   c0.072-0.076,0.156-0.137,0.223-0.223l8.719-11.115c0.693-0.887,0.922-2.051,0.611-3.133s-1.119-1.949-2.18-2.332l-13.979-5.055   L45.8,44.861h16.928c1.672,0,3.029-1.356,3.029-3.03c0-0.009-0.004-0.016-0.004-0.024h4.264c1.674,0,3.031-1.356,3.031-3.029   C73.048,37.103,71.69,35.747,70.017,35.747z"/><path fill="#000000" d="M44.237,33.654c2.873,0,5.211-2.828,5.211-6.304c0-3.478-2.338-6.307-5.211-6.307   c-2.875,0-5.213,2.829-5.213,6.307C39.024,30.826,41.362,33.654,44.237,33.654z M44.237,22.731c1.941,0,3.523,2.072,3.523,4.619   c0,2.545-1.582,4.616-3.523,4.616c-1.943,0-3.525-2.071-3.525-4.616C40.712,24.803,42.294,22.731,44.237,22.731z"/></g><text x="0" y="115" fill="#000000" font-size="5px" font-weight="bold" font-family="'Helvetica Neue', Helvetica, Arial-Unicode, Arial, Sans-serif">Created by Jems Mayor</text><text x="0" y="120" fill="#000000" font-size="5px" font-weight="bold" font-family="'Helvetica Neue', Helvetica, Arial-Unicode, Arial, Sans-serif">from the Noun Project</text></svg>